<svg id="e6Gtwozkm8S1" xmlns="http://www.w3.org/2000/svg" xmlns:xlink="http://www.w3.org/1999/xlink" viewBox="0 0 673 251" shape-rendering="geometricPrecision" text-rendering="geometricPrecision"><style><![CDATA[#e6Gtwozkm8S11_tr {animation: e6Gtwozkm8S11_tr__tr 3000ms linear infinite normal forwards}@keyframes e6Gtwozkm8S11_tr__tr { 0% {transform: translate(547.789978px,148.09066px) rotate(0deg)} 10% {transform: translate(547.789978px,148.09066px) rotate(5deg)} 23.333333% {transform: translate(547.789978px,148.09066px) rotate(10deg)} 36.666667% {transform: translate(547.789978px,148.09066px) rotate(5deg)} 50% {transform: translate(547.789978px,148.09066px) rotate(0deg)} 63.333333% {transform: translate(547.789978px,148.09066px) rotate(5deg)} 76.666667% {transform: translate(547.789978px,148.09066px) rotate(10deg)} 90% {transform: translate(547.789978px,148.09066px) rotate(5deg)} 100% {transform: translate(547.789978px,148.09066px) rotate(0deg)}} #e6Gtwozkm8S75_tr {animation: e6Gtwozkm8S75_tr__tr 3000ms linear infinite normal forwards}@keyframes e6Gtwozkm8S75_tr__tr { 0% {transform: translate(620.044251px,172.025658px) rotate(0deg)} 10% {transform: translate(620.044251px,172.025658px) rotate(-10deg)} 23.333333% {transform: translate(620.044251px,172.025658px) rotate(-20deg)} 36.666667% {transform: translate(620.044251px,172.025658px) rotate(-10deg)} 50% {transform: translate(620.044251px,172.025658px) rotate(0.059576deg)} 63.333333% {transform: translate(620.044251px,172.025658px) rotate(-10deg)} 76.666667% {transform: translate(620.044251px,172.025658px) rotate(-20deg)} 90% {transform: translate(620.044251px,172.025658px) rotate(-10deg)} 100% {transform: translate(620.044251px,172.025658px) rotate(0.059576deg)}} #e6Gtwozkm8S169_to {animation: e6Gtwozkm8S169_to__to 3000ms linear infinite normal forwards}@keyframes e6Gtwozkm8S169_to__to { 0% {transform: translate(172.537003px,53.777849px)} 10% {transform: translate(172.537003px,43.777849px)} 23.333333% {transform: translate(172.537003px,33.777849px)} 36.666667% {transform: translate(172.537003px,43.777849px)} 50% {transform: translate(172.537003px,53.777849px)} 63.333333% {transform: translate(172.537003px,43.777849px)} 76.666667% {transform: translate(172.537003px,33.777849px)} 90% {transform: translate(172.537003px,43.777849px)} 100% {transform: translate(172.537003px,53.777849px)}} #e6Gtwozkm8S177_ts {animation: e6Gtwozkm8S177_ts__ts 3000ms linear infinite normal forwards}@keyframes e6Gtwozkm8S177_ts__ts { 0% {transform: translate(607.293976px,109.153999px) scale(1,1)} 16.666667% {transform: translate(607.293976px,109.153999px) scale(1,1)} 33.333333% {transform: translate(607.293976px,109.153999px) scale(1.5,1.5)} 50% {transform: translate(607.293976px,109.153999px) scale(1,1)} 66.666667% {transform: translate(607.293976px,109.153999px) scale(1,1)} 83.333333% {transform: translate(607.293976px,109.153999px) scale(1.5,1.5)} 100% {transform: translate(607.293976px,109.153999px) scale(1,1)}} #e6Gtwozkm8S178_ts {animation: e6Gtwozkm8S178_ts__ts 3000ms linear infinite normal forwards}@keyframes e6Gtwozkm8S178_ts__ts { 0% {transform: translate(617.51297px,109.153999px) scale(1.5,1.5)} 16.666667% {transform: translate(617.51297px,109.153999px) scale(1,1)} 33.333333% {transform: translate(617.51297px,109.153999px) scale(1,1)} 50% {transform: translate(617.51297px,109.153999px) scale(1.5,1.5)} 66.666667% {transform: translate(617.51297px,109.153999px) scale(1,1)} 83.333333% {transform: translate(617.51297px,109.153999px) scale(1,1)} 100% {transform: translate(617.51297px,109.153999px) scale(1.5,1.5)}} #e6Gtwozkm8S179_ts {animation: e6Gtwozkm8S179_ts__ts 3000ms linear infinite normal forwards}@keyframes e6Gtwozkm8S179_ts__ts { 0% {transform: translate(597.075958px,109.153999px) scale(1,1)} 16.666667% {transform: translate(597.075958px,109.153999px) scale(1.5,1.5)} 33.333333% {transform: translate(597.075958px,109.153999px) scale(1,1)} 50% {transform: translate(597.075958px,109.153999px) scale(1,1)} 66.666667% {transform: translate(597.075958px,109.153999px) scale(1.5,1.5)} 83.333333% {transform: translate(597.075958px,109.153999px) scale(1,1)} 100% {transform: translate(597.075958px,109.153999px) scale(1,1)}}]]></style><path d="M330.63,118.773l.982.192-.982-.192Zm48.625-47.6336l.189.982-.022.0041-.021.0032-.146-.9893Zm44.147,17.7511l-.996-.0809v0l.996.0809ZM382.454,107.631l-.11.994.11-.994ZM351.831,78.7452l-.941-.3371v0l.941.3371ZM525.759,37.1345c-.551-.0257-.978-.4938-.952-1.0455s.494-.978,1.045-.9523l-.093,1.9978Zm-4.897-2.2141c.551.0221.981.4873.959,1.0392-.022.5518-.488.9813-1.039.9592l.08-1.9984Zm-5.066,1.8159c-.552-.0183-.984-.4806-.966-1.0326.018-.5519.481-.9846,1.032-.9663l-.066,1.9989Zm-4.921-2.1467c.552.0144.988.4736.974,1.0257-.015.5521-.474.988-1.026.9736l.052-1.9993Zm-5.046,1.8873c-.552-.0104-.992-.4664-.981-1.0186.01-.5522.466-.9914,1.018-.9811l-.037,1.9997Zm-4.941-2.0743c.552.0062.995.4589.989,1.0111-.006.5523-.459.995-1.011.9888l.022-1.9999Zm-5.027,1.9637c-.552-.0018-.999-.451-.997-1.0032.002-.5523.451-.9986,1.003-.9968l-.006,2Zm-4.965-1.996c.552-.0027,1.002.4428,1.004.9951.003.5523-.442,1.0022-.995,1.0049l-.009-2Zm-4.999,2.046c-.552.0075-1.006-.4341-1.013-.9864-.008-.5522.434-1.0059.986-1.0134l.027,1.9998Zm-5.016-1.9103c.552-.0124,1.01.4252,1.022.9773.013.5522-.425,1.0098-.977,1.0222l-.045-1.9995Zm-4.936,2.1342c-.552.0175-1.014-.4158-1.031-.9678-.018-.552.416-1.0137.968-1.0312l.063,1.999Zm-5.07-1.8157c.551-.0229,1.017.4058,1.04.9576s-.406,1.0177-.957,1.0407l-.083-1.9983Zm-4.864,2.2288c-.552.0286-1.022-.3954-1.051-.947-.028-.5515.396-1.0218.947-1.0503l.104,1.9973Zm-5.124-1.7104c.551-.0345,1.026.3843,1.06.9355.035.5512-.384,1.0261-.935,1.0606l-.125-1.9961Zm-4.841,2.3351c-.551.0407-1.03-.3727-1.071-.9235s.373-1.0303.923-1.0711l.148,1.9946Zm-5.115-1.5973c.55-.0473,1.035.3603,1.082.9106.048.5502-.36,1.0347-.91,1.0821l-.172-1.9927Zm-4.809,2.453c-.549.0544-1.039-.3471-1.093-.8967-.055-.5496.347-1.0392.896-1.0936l.197,1.9903Zm-5.171-1.4645c.549-.0618,1.044.333,1.106.8818.061.5488-.333,1.0438-.882,1.1056l-.224-1.9874Zm-4.693,2.5764c-.547.0696-1.048-.3181-1.118-.8659-.069-.5479.318-1.0485.866-1.1182l.252,1.9841Zm-5.236-1.3116c.547-.0781,1.054.3017,1.132.8485s-.302,1.0533-.849,1.1314l-.283-1.9799Zm-4.642,2.7251c-.546.0872-1.058-.2842-1.146-.8295-.087-.5454.285-1.0582.83-1.1454l.316,1.9749Zm-5.247-1.1418c.544-.0969,1.063.2653,1.16.809s-.265,1.0631-.809,1.16l-.351-1.969Zm-4.517,2.8845c-.541.1074-1.068-.2447-1.175-.7864-.107-.5418.245-1.068.786-1.1754l.389,1.9618Zm-5.306-.9336c.539-.1188,1.073.2221,1.192.7614s-.222,1.0729-.762,1.1918l-.43-1.9532Zm-4.419,3.0797c-.536.1313-1.077-.1971-1.209-.7336-.131-.5364.198-1.0777.734-1.209l.475,1.9426Zm-5.336-.6879c.533-.145,1.082.1695,1.227.7024s-.169,1.0825-.702,1.2274l-.525-1.9298Zm-4.245,3.299c-.529.16-1.087-.1388-1.247-.6674s.139-1.0868.667-1.2468l.58,1.9142Zm-5.363-.3848c.523-.1767,1.091.1043,1.268.6275.176.5233-.105,1.0907-.628,1.2674l-.64-1.8949Zm-4.025,3.562c-.517.1953-1.094-.0651-1.289-.5817-.196-.5166.065-1.0937.581-1.289l.708,1.8707Zm-5.378.0025c.508-.2162,1.096.0204,1.312.5286s-.02,1.0954-.529,1.3117l-.783-1.8403Zm-3.72,3.8801c-.497.2399-1.095.0312-1.335-.4662-.24-.4975-.031-1.0952.466-1.3352l.869,1.8014Zm-5.35.5098c.483-.2668,1.092-.0912,1.359.3923.267.4836.091,1.0919-.393,1.3587l-.966-1.751Zm-3.26,4.2595c-.465.2975-1.083.1615-1.381-.3038-.297-.4653-.161-1.0836.304-1.3812l1.077,1.685Zm-5.241,1.203c.441-.3325,1.068-.2446,1.4.1963.333.441.245,1.068-.196,1.4006l-1.204-1.5969Zm-2.576,4.7243c-.408.3721-1.04.3429-1.412-.0652-.373-.4081-.343-1.0406.065-1.4127l1.347,1.4779Zm-4.912,2.1455c.364-.4153.996-.457,1.411-.093s.457.9958.093,1.4112l-1.504-1.3182Zm-1.457,5.179c-.305.4605-.925.5866-1.386.2816-.46-.3049-.586-.9254-.281-1.3858l1.667,1.1042Zm-4.167,3.3812c.23-.5023.823-.7234,1.325-.4938.503.2295.724.8228.494,1.3252l-1.819-.8314Zm.23,5.3356c-.13.5368-.67.8669-1.207.7372s-.867-.67-.737-1.2068l1.944.4696Zm-2.551,4.6984c-.007-.5523.436-1.0052.988-1.0117s1.005.4359,1.012.9881l-2,.0236Zm2.73,4.5678c.168.5259-.121,1.089-.647,1.2577-.526.1688-1.089-.1208-1.258-.6467l1.905-.611Zm.455,5.3026c-.32-.4503-.214-1.0746.236-1.3944s1.075-.2143,1.395.2359l-1.631,1.1585Zm4.839,2.2698c.424.354.48.9847.126,1.4085-.354.4242-.985.4802-1.408.1263l1.282-1.5348Zm2.976,4.4237c-.483-.268-.658-.877-.39-1.36s.876-.657,1.359-.389l-.969,1.749Zm5.358.285c.515.2.771.779.571,1.294-.199.515-.779.771-1.294.571l.723-1.865Zm4.076,3.442c-.532-.147-.844-.698-.697-1.23.147-.533.698-.845,1.231-.697l-.534,1.927Zm5.292-.811c.542.107.895.633.788,1.175s-.632.894-1.174.788l.386-1.963Zm4.578,2.782c-.547-.074-.931-.578-.856-1.125.074-.548.578-.931,1.125-.857l-.269,1.982Zm5.031-1.522c.552.017.986.478.969,1.03-.016.552-.477.986-1.029.969l.06-1.999Zm4.859,1.846c-.55.047-1.034-.36-1.081-.911-.048-.55.36-1.034.911-1.081l.17,1.992Zm4.507-2.606c.544-.095,1.062.27,1.157.814.094.544-.27,1.062-.814,1.156l-.343-1.97Zm5.116.951c-.536.135-1.079-.189-1.215-.725-.135-.535.189-1.079.725-1.214l.49,1.939Zm4.054-3.265c.524-.174,1.09.109,1.264.634.174.524-.11,1.09-.634,1.264l-.63-1.898Zm5.202.181c-.508.215-1.095-.024-1.31-.532-.214-.509.024-1.096.533-1.311l.777,1.843Zm3.473-3.869c.487-.262,1.093-.0802,1.355.406.262.486.08,1.093-.406,1.355l-.949-1.761Zm5.143-.8388c-.448.3224-1.073.2203-1.396-.2281-.322-.4484-.22-1.0733.228-1.3957l1.168,1.6238Zm2.299-4.6399c.373-.4067,1.006-.4336,1.413-.06s.433,1.0062.06,1.4129l-1.473-1.3529Zm4.267-2.9747c-.198.5157-.776.7735-1.292.5759-.516-.1977-.773-.776-.576-1.2917l1.868.7158Zm-1.473-5.19c-.085-.5458.289-1.0568.835-1.1413s1.057.2893,1.141.8351l-1.976.3062Zm-.181-5.6032c.314.4547.199,1.0774-.256,1.3909-.454.3135-1.077.1991-1.39-.2555l1.646-1.1354Zm-5.125-2.4439c-.438-.3375-.518-.9655-.181-1.4026.338-.4372.966-.518,1.403-.1805l-1.222,1.5831Zm-3.468-4.4705c.495.2448.698.8445.453,1.3396s-.845.6981-1.34.4533l.887-1.7929Zm-5.685-.156c-.524-.1735-.808-.7392-.635-1.2635.174-.5243.74-.8087,1.264-.6352l-.629,1.8987Zm-4.611-3.3116c.541.1155.885.6469.769,1.187-.115.5401-.647.8842-1.187.7687l.418-1.9557Zm-5.574,1.1068c-.548-.0647-.94-.5618-.876-1.1103.065-.5485.562-.9407,1.111-.8759l-.235,1.9862Zm-5.156-2.3864c.552.0173.985.4788.968,1.0308s-.479.9855-1.031.9682l.063-1.999Zm-5.297,2.0567c-.552.0296-1.023-.3935-1.052-.945-.03-.5515.393-1.0226.945-1.0522l.107,1.9972Zm-5.489-1.4709c.546-.0783,1.053.3013,1.131.848.079.5467-.301,1.0534-.848,1.1318l-.283-1.9798Zm-4.781,2.8619c-.54.1163-1.072-.227-1.188-.7669s.227-1.0719.767-1.1882l.421,1.9551Zm-5.448-.54c.522-.1812,1.091.0949,1.273.6166.181.5217-.095,1.0915-.617,1.2727l-.656-1.8893Zm-3.964,3.7849c-.499.2363-1.095.0233-1.331-.4759-.237-.4992-.024-1.0954.476-1.3317l.855,1.8076Zm-5.439.6411c.474-.2825,1.088-.1269,1.37.3476.283.4745.127,1.0883-.347,1.3708l-1.023-1.7184Zm-3.176,4.4684c-.449.3213-1.074.2176-1.395-.2316s-.218-1.0738.231-1.3951l1.164,1.6267Zm-5.258,1.5444c.424-.3541,1.055-.2975,1.409.1264.354.4238.297,1.0545-.126,1.4085l-1.283-1.5349Zm-2.468,4.8947c-.398.3822-1.031.3688-1.414-.0299-.382-.3987-.368-1.0317.03-1.4139l1.384,1.4438Zm-4.997,2.2498c.374-.4068,1.006-.4338,1.413-.0603.407.3736.434,1.0062.06,1.413l-1.473-1.3527Zm-1.821,5.1693c-.348.4289-.977.4946-1.406.1467s-.495-.9777-.147-1.4066l1.553,1.2599ZM339.7,97.6357c.321-.4494.946-.5535,1.395-.2325s.553.9456.232,1.395L339.7,97.6357Zm-1.172,5.3553c-.292.469-.908.613-1.377.322-.469-.292-.613-.909-.322-1.378l1.699,1.056Zm-4.275,3.427c.258-.488.863-.675,1.351-.418.489.258.676.863.418,1.351l-1.769-.933Zm-.387,5.469c-.214.509-.801.748-1.31.533-.509-.214-.747-.8-.533-1.309l1.843.776Zm-3.598,4.142c.152-.531.706-.839,1.237-.687.531.153.838.706.686,1.237l-1.923-.55Zm1.034,5.319c-.039.551-.517.966-1.068.927s-.966-.518-.927-1.069l1.995.142Zm-1.87,5.078c-.06-.549.336-1.043.885-1.103s1.043.336,1.103.885l-1.988.218Zm2.878,4.61c.138.535-.185,1.08-.72,1.217s-1.08-.185-1.217-.72l1.937-.497Zm-.334,5.421c-.203-.513.049-1.094.562-1.297.514-.203,1.095.049,1.298.563l-1.86.734Zm3.938,3.745c.26.487.077,1.093-.41,1.353-.487.261-1.093.078-1.354-.409l1.764-.944Zm.919,5.352c-.312-.455-.196-1.078.26-1.39.455-.312,1.078-.196,1.39.259l-1.65,1.131Zm4.658,2.795c.358.42.307,1.051-.113,1.41-.42.358-1.051.307-1.41-.113l1.523-1.297Zm2.012,5.045c-.398-.382-.411-1.015-.028-1.413.382-.399,1.015-.412,1.414-.029l-1.386,1.442Zm5.122,1.817c.432.343.505.972.162,1.405s-.972.505-1.405.162l1.243-1.567Zm2.924,4.577c-.462-.304-.59-.924-.286-1.385.303-.462.923-.59,1.384-.286l-1.098,1.671Zm5.362.882c.485.264.664.872.4,1.357-.265.485-.872.664-1.357.4l.957-1.757Zm3.645,4.037c-.503-.227-.728-.819-.502-1.322.226-.504.818-.729,1.322-.503l-.82,1.825Zm5.43.052c.518.19.784.765.594,1.283-.19.519-.765.784-1.283.594l.689-1.877Zm4.169,3.484c-.529-.157-.832-.713-.675-1.243s.713-.832,1.243-.675l-.568,1.918ZM528.273,37.2559c-.841-.042-1.679-.0824-2.514-.1214l.093-1.9978c.838.039,1.678.0796,2.521.1217l-.1,1.9975Zm-7.491-.3371c-1.674-.067-3.336-.1278-4.986-.1825l.066-1.9989c1.655.0549,3.322.1159,5,.183l-.08,1.9984Zm-9.959-.3299c-1.677-.0437-3.342-.0811-4.994-.112l.037-1.9997c1.658.0311,3.327.0685,5.009.1124l-.052,1.9993Zm-9.957-.1864c-1.682-.0188-3.35-.0308-5.005-.0362l.006-2c1.661.0054,3.334.0175,5.021.0363l-.022,1.9999Zm-9.961-.0322c-1.683.0083-3.353.0237-5.008.046l-.027-1.9998c1.661-.0224,3.336-.0378,5.026-.0462l.009,2Zm-9.979.1352c-1.676.0375-3.336.0825-4.981.1347l-.063-1.999c1.651-.0524,3.317-.0975,4.999-.1352l.045,1.9995Zm-9.968.3173c-1.666.0692-3.315.146-4.947.2305l-.104-1.9973c1.64-.0848,3.295-.162,4.968-.2315l.083,1.9983Zm-9.946.5162c-1.674.1048-3.329.2178-4.966.339l-.148-1.9946c1.645-.1217,3.308-.2353,4.989-.3405l.125,1.9961Zm-9.909.7344c-1.681.1446-3.341.298-4.981.4603l-.197-1.9903c1.649-.1631,3.317-.3174,5.006-.4627l.172,1.9927Zm-9.928.9832c-1.661.187-3.3.3834-4.917.589l-.252-1.9841c1.627-.2068,3.275-.4043,4.945-.5923l.224,1.9874Zm-9.87,1.2573c-1.666.2382-3.308.4867-4.925.7452l-.316-1.9749c1.628-.2603,3.281-.5104,4.958-.7502l.283,1.9799Zm-9.821,1.5724c-1.651.2942-3.273.5994-4.868.9155l-.389-1.9618c1.608-.3186,3.243-.6263,4.906-.9227l.351,1.969Zm-9.744,1.9351c-1.648.3633-3.265.7389-4.849,1.1265l-.475-1.9426c1.599-.3915,3.231-.7706,4.894-1.1371l.43,1.9532Zm-9.66,2.3684c-1.628.4429-3.218.8994-4.77,1.3692l-.58-1.9142c1.571-.4755,3.179-.9372,4.825-1.3848l.525,1.9298Zm-9.493,2.8793c-1.6.5405-3.156,1.0963-4.665,1.6671l-.708-1.8707c1.533-.5796,3.111-1.1435,4.733-1.6913l.64,1.8949Zm-9.26,3.5099c-1.556.6625-3.057,1.3426-4.503,2.0398l-.869-1.8014c1.475-.7115,3.005-1.4045,4.589-2.0787l.783,1.8403Zm-8.887,4.3006c-1.478.8161-2.887,1.6525-4.226,2.5085l-1.077-1.685c1.377-.8804,2.823-1.7388,4.337-2.5745l.966,1.751Zm-8.263,5.3084c-1.351,1.0189-2.611,2.0618-3.78,3.1274l-1.347-1.4779c1.217-1.11,2.525-2.1923,3.923-3.2464l1.204,1.5969Zm-7.188,6.5911c-1.104,1.2601-2.091,2.5475-2.961,3.8608l-1.667-1.1042c.922-1.3924,1.964-2.751,3.124-4.0748l1.504,1.3182Zm-5.309,8.0734c-.336.7359-.639,1.4792-.908,2.2298l-1.882-.6742c.288-.8046.612-1.6003.971-2.387l1.819.8314Zm-.908,2.2298c-.263.7356-.493,1.496-.681,2.2744l-1.944-.4696c.205-.8515.456-1.6802.743-2.479l1.882.6742Zm-1.232,6.9492c.018,1.5287.242,3.0722.73,4.5914l-1.905.611c-.554-1.7262-.805-3.4694-.825-5.1788l2-.0236Zm2.816,8.7355c.838,1.1805,1.895,2.3314,3.208,3.4283l-1.282,1.5348c-1.437-1.2006-2.613-2.4765-3.557-3.8046l1.631-1.1585Zm7.153,6.103c1.303.722,2.761,1.404,4.389,2.034l-.723,1.865c-1.705-.661-3.246-1.38-4.635-2.15l.969-1.749Zm8.999,3.549c1.478.409,3.062.782,4.758,1.116l-.386,1.963c-1.742-.343-3.376-.728-4.906-1.152l.534-1.927Zm9.605,1.916c.796.109,1.613.209,2.45.302l-.219,1.988c-.854-.095-1.687-.197-2.5-.308l.269-1.982Zm2.45.302c.737.081,1.51.133,2.312.158l-.06,1.999c-.851-.026-1.676-.082-2.471-.169l.219-1.988Zm7.001.012c1.516-.13,3.084-.337,4.677-.614l.343,1.97c-1.645.287-3.271.501-4.85.636l-.17-1.992Zm9.303-1.602c1.527-.386,3.049-.83,4.544-1.326l.63,1.898c-1.541.512-3.111.969-4.684,1.367l-.49-1.939Zm8.969-2.988c1.485-.626,2.911-1.304,4.25-2.026l.949,1.761c-1.4.754-2.884,1.459-4.422,2.108l-.777-1.843Zm8.225-4.4886c1.343-.965,2.511-1.9749,3.467-3.0161l1.473,1.3529c-1.067,1.1612-2.343,2.2594-3.772,3.287l-1.168-1.6238Zm5.866-6.7066c.262-.6825.423-1.3674.479-2.0542l1.993.1617c-.072.892-.28,1.7631-.604,2.6083l-1.868-.7158Zm.479-2.0542c.067-.8358.037-1.6424-.084-2.42l1.976-.3062c.145.9349.181,1.8986.101,2.8879l-1.993-.1617Zm-1.911-6.8878c-.885-1.2831-2.057-2.4809-3.479-3.5793l1.222-1.5831c1.556,1.2016,2.881,2.545,3.903,4.027l-1.646,1.1354Zm-7.834-6.2569c-1.478-.7308-3.086-1.3825-4.798-1.9489l.629-1.8987c1.79.5924,3.485,1.2784,5.056,2.0547l-.887,1.7929Zm-9.827-3.3048c-1.667-.3567-3.393-.6408-5.156-.8489l.235-1.9862c1.822.2151,3.609.5092,5.339.8794l-.418,1.9557Zm-10.375-1.2363c-1.736-.0544-3.486-.0361-5.234.0577l-.107-1.9972c1.805-.0968,3.612-.1157,5.404-.0595l-.063,1.999Zm-10.44.5666c-.864.1239-1.724.2675-2.575.431l-.377-1.9641c.883-.1696,1.773-.3184,2.669-.4467l.283,1.9798Zm-2.618.4383c-.82.1206-1.635.269-2.446.4438l-.421-1.9551c.853-.1839,1.711-.3402,2.575-.4674l.292,1.9787Zm-7.238,1.7931c-1.563.5428-3.104,1.1782-4.62,1.8956l-.855-1.8076c1.576-.7464,3.184-1.4095,4.819-1.9773l.656,1.8893Zm-9.036,4.2551c-1.431.8518-2.831,1.7718-4.199,2.75l-1.164-1.6267c1.411-1.0089,2.859-1.9598,4.34-2.8417l1.023,1.7184Zm-8.174,5.8293c-1.289,1.0765-2.541,2.1998-3.751,3.3598l-1.384-1.4438c1.242-1.1902,2.527-2.344,3.852-3.4509l1.283,1.5349Zm-7.275,6.9623c-1.146,1.2489-2.246,2.5248-3.294,3.8166l-1.553-1.2599c1.073-1.3229,2.199-2.6298,3.374-3.9094l1.473,1.3527Zm-6.351,7.8297c-.998,1.3978-1.933,2.7998-2.799,4.1928l-1.699-1.056c.89-1.43,1.848-2.8675,2.871-4.2993l1.627,1.1625Zm-5.305,8.5528c-.817,1.55-1.538,3.069-2.156,4.536l-1.843-.776c.642-1.525,1.388-3.095,2.23-4.693l1.769.933Zm-3.831,9.228c-.237.828-.431,1.625-.579,2.386l-1.963-.384c.161-.823.368-1.675.619-2.552l1.923.55Zm-.579,2.386c-.145.739-.25,1.536-.31,2.383l-1.995-.142c.066-.921.18-1.799.342-2.625l1.963.384Zm-.192,7.243c.168,1.536.461,3.154.89,4.828l-1.937.497c-.452-1.763-.762-3.474-.941-5.107l1.988-.218Zm2.416,9.515c.583,1.477,1.273,2.976,2.078,4.479l-1.764.944c-.841-1.571-1.563-3.14-2.174-4.689l1.86-.734Zm4.647,8.7c.905,1.321,1.906,2.633,3.008,3.926l-1.523,1.297c-1.147-1.346-2.19-2.714-3.135-4.092l1.65-1.131Zm6.406,7.529c1.159,1.113,2.403,2.202,3.736,3.259l-1.243,1.567c-1.382-1.096-2.674-2.227-3.879-3.384l1.386-1.442Zm7.758,6.165c1.346.884,2.766,1.737,4.264,2.553l-.957,1.757c-1.545-.842-3.013-1.724-4.405-2.639l1.098-1.671Zm8.729,4.765c1.472.661,3.008,1.288,4.61,1.877l-.689,1.877c-1.646-.604-3.225-1.249-4.741-1.929l.82-1.825Zm9.347,3.443c.791.234,1.596.459,2.416.675l-.509,1.934c-.84-.221-1.664-.452-2.475-.691l.568-1.918Z"/><path d="M545.81,57.7106l31.208-7.2711-34.158,1.6286l2.95,5.6425Z" fill="#fff"/><path d="M545.81,57.7106l31.208-7.2711-34.158,1.6286l2.95,5.6425Z" fill-opacity="0.4"/><path d="M554.267,38.291c.429-.1189,7.123,5.7156,10.803,9.0019l-15.21.0652c1.469-3.0224,3.923-8.9327,4.407-9.0671Z" fill="#fff"/><path d="M554.267,38.291c.429-.1189,7.123,5.7156,10.803,9.0019l-15.21.0652c1.469-3.0224,3.923-8.9327,4.407-9.0671Z" fill-opacity="0.2"/><path d="M578.851,50.3928L558.887,33.318l-4.619,4.9729l10.802,9.0019-24.921-.0101-6.334,5.4483l45.036-2.3382Z" fill="#fff" stroke="#000" stroke-linecap="round"/><path d="M640.597,221.559h29.403" fill="none" stroke="#000" stroke-width="5" stroke-linecap="round"/><path d="M24.4131,221.559h602.4409" fill="none" stroke="#000" stroke-width="5" stroke-linecap="round"/><path d="M3,221.559h10.8663" fill="none" stroke="#000" stroke-width="5" stroke-linecap="round"/><g id="e6Gtwozkm8S11_tr" transform="translate(547.789978,148.09066) rotate(0)"><g transform="translate(-547.789978,-148.09066)"><g><path d="M535.511,125.959l-3.282,8.941c-.597,1.625,1.013,3.189,2.62,2.546l5.659-2.263c.998-.399,1.502-1.515,1.141-2.528l-2.376-6.677c-.628-1.763-3.117-1.775-3.762-.019Z" fill="#c4c4c4"/><path d="M565.727,132.45l-4.236,4.554c-.733.788-.711,2.015.05,2.776l3.813,3.813c1.226,1.226,3.324.418,3.412-1.313l.423-8.367c.095-1.864-2.19-2.83-3.462-1.463Z" fill="#c4c4c4"/><ellipse rx="23.6887" ry="17.2193" transform="matrix(.989159 0.146849-.146849 0.989159 547.789984 151.02118)" fill="#c4c4c4"/></g><g><g><path d="M535.511,125.959l-3.282,8.941c-.597,1.625,1.013,3.189,2.62,2.546l5.659-2.263c.998-.399,1.502-1.515,1.141-2.528l-2.376-6.677c-.628-1.763-3.117-1.775-3.762-.019Z" fill="none" stroke="#e3d1fc" stroke-width="0.5"/><path d="M535.511,125.959l-3.282,8.941c-.597,1.625,1.013,3.189,2.62,2.546l5.659-2.263c.998-.399,1.502-1.515,1.141-2.528l-2.376-6.677c-.628-1.763-3.117-1.775-3.762-.019Z" fill="none" stroke="#000" stroke-width="0.5" stroke-opacity="0.2"/><path d="M565.727,132.45l-4.236,4.554c-.733.788-.711,2.015.05,2.776l3.813,3.813c1.226,1.226,3.324.418,3.412-1.313l.423-8.367c.095-1.864-2.19-2.83-3.462-1.463Z" fill="none" stroke="#e3d1fc" stroke-width="0.5"/><path d="M565.727,132.45l-4.236,4.554c-.733.788-.711,2.015.05,2.776l3.813,3.813c1.226,1.226,3.324.418,3.412-1.313l.423-8.367c.095-1.864-2.19-2.83-3.462-1.463Z" fill="none" stroke="#000" stroke-width="0.5" stroke-opacity="0.2"/><g mask="url(#e6Gtwozkm8S52)"><g><path d="M528.154,143.104l-2.536-3.194c-.461-.58-1.372-.475-1.688.197l-.751,1.596c-.234.495-.025,1.086.467,1.325l3.288,1.597c.957.465,1.881-.688,1.22-1.521Z" fill="#c4c4c4"/><path d="M528.154,143.104l-2.536-3.194c-.461-.58-1.372-.475-1.688.197l-.751,1.596c-.234.495-.025,1.086.467,1.325l3.288,1.597c.957.465,1.881-.688,1.22-1.521Z" fill-opacity="0.2"/><path d="M527.684,147.264l-4.061-1.416c-.65-.227-1.33.255-1.33.944v1.7c0,.58.492,1.038,1.07.998l4.062-.284c1.084-.076,1.286-1.584.259-1.942Z" fill="#c4c4c4"/><path d="M527.684,147.264l-4.061-1.416c-.65-.227-1.33.255-1.33.944v1.7c0,.58.492,1.038,1.07.998l4.062-.284c1.084-.076,1.286-1.584.259-1.942Z" fill-opacity="0.2"/><path d="M527.209,151.712l-3.246.974c-.616.185-.9.896-.581,1.454l.649,1.136c.307.536,1.02.669,1.499.28l2.597-2.11c.85-.69.131-2.048-.918-1.734Z" fill="#c4c4c4"/><path d="M527.209,151.712l-3.246.974c-.616.185-.9.896-.581,1.454l.649,1.136c.307.536,1.02.669,1.499.28l2.597-2.11c.85-.69.131-2.048-.918-1.734Z" fill-opacity="0.2"/><path d="M545.629,140.864c.25-3.516.535-7.714.708-9.497.048-.492.469-.785.957-.701l4.476.772c.685.118,1.044.882.696,1.485l-4.917,8.532c-.534.928-1.996.478-1.92-.591Z" fill="#c4c4c4"/><path d="M545.629,140.864c.25-3.516.535-7.714.708-9.497.048-.492.469-.785.957-.701l4.476.772c.685.118,1.044.882.696,1.485l-4.917,8.532c-.534.928-1.996.478-1.92-.591Z" fill-opacity="0.2"/><path d="M565.964,147.946l3.876-2.04c.529-.278,1.182-.034,1.398.522l.714,1.837c.249.638-.203,1.331-.887,1.361l-4.591.204c-1.067.048-1.456-1.386-.51-1.884Z" fill="#c4c4c4"/><path d="M565.964,147.946l3.876-2.04c.529-.278,1.182-.034,1.398.522l.714,1.837c.249.638-.203,1.331-.887,1.361l-4.591.204c-1.067.048-1.456-1.386-.51-1.884Z" fill-opacity="0.2"/><path d="M565.463,151.791l5.174-.112c.599-.013,1.074.499,1.018,1.094l-.225,2.363c-.066.683-.785,1.099-1.41.815l-4.949-2.25c-.969-.44-.672-1.887.392-1.91Z" fill="#c4c4c4"/><path d="M565.463,151.791l5.174-.112c.599-.013,1.074.499,1.018,1.094l-.225,2.363c-.066.683-.785,1.099-1.41.815l-4.949-2.25c-.969-.44-.672-1.887.392-1.91Z" fill-opacity="0.2"/><path d="M564.519,155.985c1.766,1.209,3.596,2.489,4.442,3.145.308.239.322.616.078.92l-1.496,1.87c-.433.541-1.273.488-1.634-.104l-2.758-4.523c-.555-.91.489-1.91,1.368-1.308Z" fill="#c4c4c4"/><path d="M564.519,155.985c1.766,1.209,3.596,2.489,4.442,3.145.308.239.322.616.078.92l-1.496,1.87c-.433.541-1.273.488-1.634-.104l-2.758-4.523c-.555-.91.489-1.91,1.368-1.308Z" fill-opacity="0.2"/><path d="M528.154,143.104l-2.536-3.194c-.461-.58-1.372-.475-1.688.197l-.751,1.596c-.234.495-.025,1.086.467,1.325l3.288,1.597c.957.465,1.881-.688,1.22-1.521Z" fill="none" stroke="#e3d1fc" stroke-width="0.5"/><path d="M528.154,143.104l-2.536-3.194c-.461-.58-1.372-.475-1.688.197l-.751,1.596c-.234.495-.025,1.086.467,1.325l3.288,1.597c.957.465,1.881-.688,1.22-1.521Z" fill="none" stroke="#000" stroke-width="0.5" stroke-opacity="0.2"/><path d="M527.684,147.264l-4.061-1.416c-.65-.227-1.33.255-1.33.944v1.7c0,.58.492,1.038,1.07.998l4.062-.284c1.084-.076,1.286-1.584.259-1.942Z" fill="none" stroke="#e3d1fc" stroke-width="0.5"/><path d="M527.684,147.264l-4.061-1.416c-.65-.227-1.33.255-1.33.944v1.7c0,.58.492,1.038,1.07.998l4.062-.284c1.084-.076,1.286-1.584.259-1.942Z" fill="none" stroke="#000" stroke-width="0.5" stroke-opacity="0.2"/><path d="M527.209,151.712l-3.246.974c-.616.185-.9.896-.581,1.454l.649,1.136c.307.536,1.02.669,1.499.28l2.597-2.11c.85-.69.131-2.048-.918-1.734Z" fill="none" stroke="#e3d1fc" stroke-width="0.5"/><path d="M527.209,151.712l-3.246.974c-.616.185-.9.896-.581,1.454l.649,1.136c.307.536,1.02.669,1.499.28l2.597-2.11c.85-.69.131-2.048-.918-1.734Z" fill="none" stroke="#000" stroke-width="0.5" stroke-opacity="0.2"/><path d="M545.629,140.864c.25-3.516.535-7.714.708-9.497.048-.492.469-.785.957-.701l4.476.772c.685.118,1.044.882.696,1.485l-4.917,8.532c-.534.928-1.996.478-1.92-.591Z" fill="none" stroke="#e3d1fc" stroke-width="0.5"/><path d="M545.629,140.864c.25-3.516.535-7.714.708-9.497.048-.492.469-.785.957-.701l4.476.772c.685.118,1.044.882.696,1.485l-4.917,8.532c-.534.928-1.996.478-1.92-.591Z" fill="none" stroke="#000" stroke-width="0.5" stroke-opacity="0.2"/><path d="M565.964,147.946l3.876-2.04c.529-.278,1.182-.034,1.398.522l.714,1.837c.249.638-.203,1.331-.887,1.361l-4.591.204c-1.067.048-1.456-1.386-.51-1.884Z" fill="none" stroke="#e3d1fc" stroke-width="0.5"/><path d="M565.964,147.946l3.876-2.04c.529-.278,1.182-.034,1.398.522l.714,1.837c.249.638-.203,1.331-.887,1.361l-4.591.204c-1.067.048-1.456-1.386-.51-1.884Z" fill="none" stroke="#000" stroke-width="0.5" stroke-opacity="0.2"/><path d="M565.463,151.791l5.174-.112c.599-.013,1.074.499,1.018,1.094l-.225,2.363c-.066.683-.785,1.099-1.41.815l-4.949-2.25c-.969-.44-.672-1.887.392-1.91Z" fill="none" stroke="#e3d1fc" stroke-width="0.5"/><path d="M565.463,151.791l5.174-.112c.599-.013,1.074.499,1.018,1.094l-.225,2.363c-.066.683-.785,1.099-1.41.815l-4.949-2.25c-.969-.44-.672-1.887.392-1.91Z" fill="none" stroke="#000" stroke-width="0.5" stroke-opacity="0.2"/><path d="M564.519,155.985c1.766,1.209,3.596,2.489,4.442,3.145.308.239.322.616.078.92l-1.496,1.87c-.433.541-1.273.488-1.634-.104l-2.758-4.523c-.555-.91.489-1.91,1.368-1.308Z" fill="none" stroke="#e3d1fc" stroke-width="0.5"/><path d="M564.519,155.985c1.766,1.209,3.596,2.489,4.442,3.145.308.239.322.616.078.92l-1.496,1.87c-.433.541-1.273.488-1.634-.104l-2.758-4.523c-.555-.91.489-1.91,1.368-1.308Z" fill="none" stroke="#000" stroke-width="0.5" stroke-opacity="0.2"/></g><mask id="e6Gtwozkm8S52" mask-type="alpha"><ellipse rx="23.6887" ry="17.2193" transform="matrix(.989159 0.146849-.146849 0.989159 547.789969 151.03216)" fill="#c4c4c4"/></mask></g><path d="M543.347,138.332c-2.252-.123-4.186-.173-6.188.104-.921.128-1.468-.791-.64-1.215c1.12-.573,2.283-.721,2.981-.721.83,0,2.957.267,4.271.929.632.319.282.941-.424.903Z"/><path d="M559.167,142.612c-1.337-.908-2.759-1.824-4.143-2.667-.889-.542-.555-1.499.438-1.186c1.365.431,2.605.941,3.062,1.283.394.296.996.878,1.635,1.59.71.789-.113,1.577-.992.98Z"/><path d="M542.934,154.099c.531.716,1.195,1.429,1.655,1.736.941-.314,1.564-.628,2.227-1.156.534-.425.37-1.197-.293-1.36-.368-.09-.785-.181-1.237-.271-.656-.131-1.237-.188-1.787-.172-.639.02-.946.709-.565,1.223Z"/><path d="M537.159,138.436l.069.496v0l-.069-.496Zm6.188-.104l-.028.499v0l.028-.499Zm.424-.903l-.225.447v0l.225-.447Zm-7.252-.208l-.227-.445v0l.227.445Zm18.505,2.724l-.26.427v0l.26-.427Zm4.143,2.667l-.28.414v0l.28-.414Zm.992-.98l.372-.335v0l-.372.335Zm-1.635-1.59l.3-.4v0l-.3.4Zm-3.062-1.283l.151-.477v0l-.151.477Zm-12.528,15.34l-.401.298v0l.401-.298Zm.565-1.223l.016.5v0l-.016-.5Zm1.787.172l-.098.49v0l.098-.49Zm1.237.271l-.12.486v0l.12-.486Zm.293,1.36l.312.392v0l-.312-.392Zm5.443,3.184c.094-.259-.04-.546-.299-.64-.26-.095-.547.039-.641.299l.94.341Zm-14.384-2.382c-.067-.268-.339-.431-.607-.364s-.43.339-.363.607l.97-.243Zm-.647-16.549c1.95-.271,3.844-.223,6.091-.101l.055-.999c-2.256-.122-4.231-.175-6.283.109l.137.991Zm6.768-1.949c-.718-.362-1.631-.605-2.45-.758-.821-.154-1.592-.225-2.046-.225v1c.377,0,1.084.062,1.862.208.781.146,1.588.368,2.184.668l.45-.893ZM539.5,136c-.756,0-2.002.158-3.208.776l.455.89c1.032-.528,2.112-.666,2.753-.666v-1Zm15.264,4.372c1.377.839,2.791,1.75,4.123,2.654l.561-.828c-1.344-.912-2.773-1.833-4.164-2.68l-.52.854Zm5.767.925c-.646-.718-1.274-1.33-1.707-1.655l-.6.8c.354.266.93.82,1.563,1.524l.744-.669Zm-1.707-1.655c-.283-.212-.758-.445-1.298-.67-.554-.231-1.22-.471-1.913-.69l-.301.954c.67.212,1.308.442,1.829.659.536.223.909.417,1.083.547l.6-.8Zm-13.957,15.777c-.388-.259-1.01-.915-1.531-1.618l-.803.596c.541.729,1.245,1.498,1.779,1.854l.555-.832Zm-1.352-2.043c.503-.015,1.046.037,1.673.162l.196-.981c-.684-.136-1.305-.199-1.9-.18l.031.999Zm1.673.162c.448.09.857.178,1.215.267l.239-.972c-.377-.092-.802-.184-1.258-.276l-.196.981Zm1.317.75c-.607.483-1.174.772-2.074,1.072l.316.949c.982-.327,1.661-.665,2.381-1.238l-.623-.783Zm-2.416,1.547c0,1.847,0,2.727-.449,4.523l.97.243c.48-1.919.479-2.898.479-4.766h-1Zm-.056,5.136c1.915.359,3.692.308,5.133-.193c1.454-.506,2.569-1.474,3.093-2.915l-.94-.341c-.405,1.114-1.264,1.888-2.482,2.311-1.229.428-2.819.493-4.62.155l-.184.983Zm.184-.983c-2.127-.399-3.548-.904-4.517-1.609-.945-.687-1.499-1.593-1.825-2.898l-.97.243c.37,1.482,1.034,2.611,2.207,3.464c1.15.836,2.748,1.376,4.921,1.783l.184-.983Zm2.186-6.183c.151.037.21.126.226.201.017.075-.001.184-.124.282l.623.783c.411-.328.577-.817.479-1.275-.098-.459-.453-.837-.965-.963l-.239.972Zm-3.067-.004c-.083-.113-.079-.22-.047-.291.031-.068.098-.13.226-.134l-.031-.999c-1.077.033-1.553,1.208-.951,2.02l.803-.596Zm15.551-10.775c.579.393,1.279.404,1.721-.026.217-.212.335-.505.318-.824-.016-.314-.159-.616-.395-.879l-.744.669c.119.132.139.224.141.261.001.033-.008.047-.018.057-.012.011-.162.118-.462-.086l-.561.828Zm-3.603-3.508c-.156-.095-.228-.19-.256-.249-.029-.06-.016-.08-.02-.068-.007.018-.019.016.005.008.031-.011.124-.028.299.027l.301-.954c-.633-.2-1.321-.044-1.546.58-.208.576.138,1.169.697,1.51l.52-.854Zm-11.965-.687c.483.026.974-.169,1.187-.59.112-.221.131-.484.022-.732-.104-.238-.303-.411-.532-.526l-.45.893c.087.044.081.068.067.035-.008-.017-.013-.04-.012-.066s.008-.045.014-.057c.011-.022.013-.008-.029.012-.04.019-.11.038-.212.032l-.055.999Zm-6.228-.89c-.293.041-.439-.092-.471-.148-.007-.013-.008-.02-.008-.021c0,0,0,0,0,.001c0,.002,0,.002,0,.002c0-.001.001-.003.004-.008.003-.004.008-.012.017-.021.018-.019.053-.048.114-.08l-.455-.89c-.292.149-.52.373-.623.665-.104.295-.058.594.077.838.265.477.853.74,1.482.653l-.137-.991Z"/><path d="M537.159,138.436l.069.496v0l-.069-.496Zm6.188-.104l-.028.499v0l.028-.499Zm.424-.903l-.225.447v0l.225-.447Zm-7.252-.208l-.227-.445v0l.227.445Zm18.505,2.724l-.26.427v0l.26-.427Zm4.143,2.667l-.28.414v0l.28-.414Zm.992-.98l.372-.335v0l-.372.335Zm-1.635-1.59l.3-.4v0l-.3.4Zm-3.062-1.283l.151-.477v0l-.151.477Zm-12.528,15.34l-.401.298v0l.401-.298Zm.565-1.223l.016.5v0l-.016-.5Zm1.787.172l-.098.49v0l.098-.49Zm1.237.271l-.12.486v0l.12-.486Zm.293,1.36l.312.392v0l-.312-.392Zm5.443,3.184c.094-.259-.04-.546-.299-.64-.26-.095-.547.039-.641.299l.94.341Zm-14.384-2.382c-.067-.268-.339-.431-.607-.364s-.43.339-.363.607l.97-.243Zm-.647-16.549c1.95-.271,3.844-.223,6.091-.101l.055-.999c-2.256-.122-4.231-.175-6.283.109l.137.991Zm6.768-1.949c-.718-.362-1.631-.605-2.45-.758-.821-.154-1.592-.225-2.046-.225v1c.377,0,1.084.062,1.862.208.781.146,1.588.368,2.184.668l.45-.893ZM539.5,136c-.756,0-2.002.158-3.208.776l.455.89c1.032-.528,2.112-.666,2.753-.666v-1Zm15.264,4.372c1.377.839,2.791,1.75,4.123,2.654l.561-.828c-1.344-.912-2.773-1.833-4.164-2.68l-.52.854Zm5.767.925c-.646-.718-1.274-1.33-1.707-1.655l-.6.8c.354.266.93.82,1.563,1.524l.744-.669Zm-1.707-1.655c-.283-.212-.758-.445-1.298-.67-.554-.231-1.22-.471-1.913-.69l-.301.954c.67.212,1.308.442,1.829.659.536.223.909.417,1.083.547l.6-.8Zm-13.957,15.777c-.388-.259-1.01-.915-1.531-1.618l-.803.596c.541.729,1.245,1.498,1.779,1.854l.555-.832Zm-1.352-2.043c.503-.015,1.046.037,1.673.162l.196-.981c-.684-.136-1.305-.199-1.9-.18l.031.999Zm1.673.162c.448.09.857.178,1.215.267l.239-.972c-.377-.092-.802-.184-1.258-.276l-.196.981Zm1.317.75c-.607.483-1.174.772-2.074,1.072l.316.949c.982-.327,1.661-.665,2.381-1.238l-.623-.783Zm-2.416,1.547c0,1.847,0,2.727-.449,4.523l.97.243c.48-1.919.479-2.898.479-4.766h-1Zm-.056,5.136c1.915.359,3.692.308,5.133-.193c1.454-.506,2.569-1.474,3.093-2.915l-.94-.341c-.405,1.114-1.264,1.888-2.482,2.311-1.229.428-2.819.493-4.62.155l-.184.983Zm.184-.983c-2.127-.399-3.548-.904-4.517-1.609-.945-.687-1.499-1.593-1.825-2.898l-.97.243c.37,1.482,1.034,2.611,2.207,3.464c1.15.836,2.748,1.376,4.921,1.783l.184-.983Zm2.186-6.183c.151.037.21.126.226.201.017.075-.001.184-.124.282l.623.783c.411-.328.577-.817.479-1.275-.098-.459-.453-.837-.965-.963l-.239.972Zm-3.067-.004c-.083-.113-.079-.22-.047-.291.031-.068.098-.13.226-.134l-.031-.999c-1.077.033-1.553,1.208-.951,2.02l.803-.596Zm15.551-10.775c.579.393,1.279.404,1.721-.026.217-.212.335-.505.318-.824-.016-.314-.159-.616-.395-.879l-.744.669c.119.132.139.224.141.261.001.033-.008.047-.018.057-.012.011-.162.118-.462-.086l-.561.828Zm-3.603-3.508c-.156-.095-.228-.19-.256-.249-.029-.06-.016-.08-.02-.068-.007.018-.019.016.005.008.031-.011.124-.028.299.027l.301-.954c-.633-.2-1.321-.044-1.546.58-.208.576.138,1.169.697,1.51l.52-.854Zm-11.965-.687c.483.026.974-.169,1.187-.59.112-.221.131-.484.022-.732-.104-.238-.303-.411-.532-.526l-.45.893c.087.044.081.068.067.035-.008-.017-.013-.04-.012-.066s.008-.045.014-.057c.011-.022.013-.008-.029.012-.04.019-.11.038-.212.032l-.055.999Zm-6.228-.89c-.293.041-.439-.092-.471-.148-.007-.013-.008-.02-.008-.021c0,0,0,0,0,.001c0,.002,0,.002,0,.002c0-.001.001-.003.004-.008.003-.004.008-.012.017-.021.018-.019.053-.048.114-.08l-.455-.89c-.292.149-.52.373-.623.665-.104.295-.058.594.077.838.265.477.853.74,1.482.653l-.137-.991Z" fill-opacity="0.2"/><circle r="3.48364" transform="translate(537.39 147.938)"/><circle r="0.928969" transform="translate(539.015 147.242)" fill="#fff"/><path d="M536.693,152.583c.929-.155,2.322-1.161,2.787-1.858-2.323.697-3.484.929-6.271.929c1.161.929,2.09,1.161,3.484.929Z" fill-opacity="0.25"/><path d="M554.344,155.18c-.926-.169-2.334-1.429-2.787-2.132c2.311.732,3.498,1.214,6.285,1.257-1.175.911-2.108,1.129-3.498.875Z" fill-opacity="0.25"/><circle r="3.48364" transform="matrix(.994844 0.101417-.101417 0.994844 553.981978 150.595916)"/><circle r="0.928969" transform="matrix(.994844 0.101417-.101417 0.994844 555.670023 150.06793)" fill="#fff"/><circle r="0.464485" transform="translate(539.944 154.673)"/></g><circle r="0.464485" transform="translate(540.409 156.996)"/><circle r="0.464485" transform="translate(542.267 156.067)"/><circle r="0.464485" transform="translate(546.911 156.996)"/><circle r="0.464485" transform="translate(548.305 158.389)"/><circle r="0.464485" transform="translate(549.699 156.531)"/></g></g></g><path d="M544.589,213.599c2.09-7.368-.464-20.142-.464-27.806c5.341,4.181,8.128,12.774,8.128,19.509c0,1.397-1.259,9.883-2.322,11.316-3.669.688-5.3.47-8.693.018l-.133-.018c.929-2.09,1.162-2.09,3.484-3.019Z" fill="#c4c4c4"/><path d="M544.589,213.599c2.09-7.368-.464-20.142-.464-27.806c5.341,4.181,8.128,12.774,8.128,19.509c0,1.397-1.259,9.883-2.322,11.316-3.669.688-5.3.47-8.693.018l-.133-.018c.929-2.09,1.162-2.09,3.484-3.019Z" fill-opacity="0.2"/><path d="M566.884,194.787c-1.625.993-2.322.761-4.412.761c0-6.039-.232-7.264-1.161-13.534c1.393,5.341,1.857,10.451,5.573,12.773Z" fill="#c4c4c4"/><path d="M566.884,194.787c-1.625.993-2.322.761-4.412.761c0-6.039-.232-7.264-1.161-13.534c1.393,5.341,1.857,10.451,5.573,12.773Z" fill-opacity="0.2"/><g id="e6Gtwozkm8S75_tr" transform="translate(620.044251,172.025658) rotate(0)"><g transform="translate(-620.044251,-172.025658)"><path d="M612.868,211.741c-1.161-3.252-6.967-19.445-8.593-22.232.929-2.09,1.626-5.341,3.252-8.825c1.446-3.099,5.109-5.806,5.109-11.147-1.995-8.979-.095.089-2.09-8.889l-4.645-4.878c3.889-2.847,10.302-10.218,14.399-13.237c8.825-6.503,10.683-10.103,14.631-12.077c4.645-2.322,7.432.464,5.574,3.251-14.631,10.451-19.74,14.632-29.959,26.941c1.995,8.978.095-.09,2.09,8.889c1.858,10.218,6.271,31.288,4.877,43.133-2.322,1.626-3.716,2.787-6.503,3.716-1.393-1.626.233-3.716,1.858-4.645Z" fill="#c4c4c4"/><g transform="translate(.363 0.037283)"><path d="M612.868,211.741c-1.161-3.252-6.967-19.445-8.593-22.232.929-2.09,1.626-5.341,3.252-8.825c1.446-3.099,5.109-5.806,5.109-11.147-1.995-8.979-.095.089-2.09-8.889l-4.645-4.878c3.889-2.847,10.302-10.218,14.399-13.237c8.825-6.503,10.683-10.103,14.631-12.077c4.645-2.322,7.432.464,5.574,3.251-14.631,10.451-19.74,14.632-29.959,26.941c1.995,8.978.095-.09,2.09,8.889c1.858,10.218,6.271,31.288,4.877,43.133-2.322,1.626-3.716,2.787-6.503,3.716-1.393-1.626.233-3.716,1.858-4.645Z" fill-opacity="0.2"/></g></g></g><path d="M548.532,194.787c-3.484-5.574-8.825-15.328-7.432-27.869l11.148,1.858l12.309-3.948c6.502.696,28.803-.633,43.202-10.387l3.014,6.038c1.399,4.349,1.484,5.742,2.09,11.316c1.161,10.683,0,16.954-2.09,28.101-2.09,7.432-3.716,11.612-7.432,19.044-3.716,0-5.574,0-8.825-.929c1.626-2.322,2.787-2.554,5.109-2.554.929-5.806,1.161-11.38,1.161-16.954-13.702.929-19.972.464-33.907-3.716-4.805-2.555-4.413-7.896-5.574-13.006c1.232,6.735,1.161,9.755,1.161,15.793c0,6.967-1.161,11.844-2.09,18.579h-9.057c0-1.393,2.09-2.322,2.09-2.322-.465-8.129-2.09-11.38-4.877-19.044Z" fill="#c4c4c4"/><path d="M569.365,163.194c-10.451,2.091-22.992,3.949-33.675,4.645-1.626.106-.464,6.413,1.161,6.271c13.238-1.161,20.902-2.09,33.675-4.877c2.091-.456.697-6.41-1.161-6.039Z" fill="#fabd03"/><g mask="url(#e6Gtwozkm8S85)"><g><path d="M569.365,163.195c-10.451,2.09-22.992,3.948-33.675,4.645-1.626.106-.464,6.413,1.161,6.27c13.238-1.161,20.902-2.09,33.675-4.877c2.091-.456.697-6.41-1.161-6.038Z" fill="#fabd03"/><path d="M569.365,163.195c-10.451,2.09-22.992,3.948-33.675,4.645-1.626.106-.464,6.413,1.161,6.27c13.238-1.161,20.902-2.09,33.675-4.877c2.091-.456.697-6.41-1.161-6.038Z" fill-opacity="0.2"/></g><mask id="e6Gtwozkm8S85" mask-type="alpha"><rect width="8.36072" height="9.28969" rx="0" ry="0" transform="matrix(.992496-.122275 0.122275 0.992496 532.04802 166.97498)" fill="#c4c4c4"/></mask></g><g mask="url(#e6Gtwozkm8S91)"><g><path d="M569.365,163.195c-10.451,2.09-22.992,3.948-33.675,4.645-1.626.106-.464,6.413,1.161,6.27c13.238-1.161,20.902-2.09,33.675-4.877c2.091-.456.697-6.41-1.161-6.038Z" fill="#fabd03"/><path d="M569.365,163.195c-10.451,2.09-22.992,3.948-33.675,4.645-1.626.106-.464,6.413,1.161,6.27c13.238-1.161,20.902-2.09,33.675-4.877c2.091-.456.697-6.41-1.161-6.038Z" fill="#fff" fill-opacity="0.2"/></g><mask id="e6Gtwozkm8S91" mask-type="alpha"><rect width="9.75418" height="9.75418" rx="0" ry="0" transform="matrix(.99102-.133714 0.133714 0.99102 564.490066 162.015878)" fill="#c4c4c4"/></mask></g><g><path d="M281.972,218.759v-130.759h73.422v18.161h-51.888v40.732h48.515v17.902h-48.515v53.964h-21.534Z" fill="#e3d1fc" stroke="#000"/><path d="M269,218.759L269,88h73.422v18.161h-51.888v40.732h48.515v17.902h-48.515v53.964h-21.534Z" fill="#fff" stroke="#000"/></g><g><path d="M407.636,88h11.693h11.694l48.853,130.985h-22.867l-37.68-112.013-19.454,57.436-18.485,54.577h-22.868L407.636,88Z" fill="#e3d1fc"/><path d="M419.329,106.972v-18.972m0,18.972l37.68,112.013h22.867L431.023,88h-11.694m0,18.972l-19.454,57.436-18.485,54.577h-22.868L407.636,88h11.693" fill="none" stroke="#000"/><path d="M438.819,164.668h-38.979l-6.237,18.192l51.192-.26-5.976-17.932Z" fill="#e3d1fc" stroke="#000"/><path d="M395.682,88h11.694h11.693l48.854,130.985h-22.868L407.376,106.972l-19.454,57.436-18.485,54.577h-22.868L395.682,88Z" fill="#fff"/><path d="M407.376,106.972v-18.972m0,18.972l37.679,112.013h22.868L419.069,88h-11.693m0,18.972l-19.454,57.436-18.485,54.577h-22.868L395.682,88h11.694" fill="none" stroke="#000"/><path d="M426.693,164.668h-38.807l-6.016,18.087l50.861-.232-6.038-17.855Z" fill="#fefefe" stroke="#000"/></g><g><path d="M556.052,241.512l18.347-9.057l13.702.696-18.347,8.593-13.702-.232Z" fill="#e3d1fc"/><path d="M556.052,241.512l18.347-9.057l13.702.696-18.347,8.593-13.702-.232Z" fill-opacity="0.2"/><path d="M556.052,241.512l18.347-9.057l13.702.696-18.347,8.593-13.702-.232Z" fill="none" stroke="#000"/><path d="M574.399,232.455l-11.148-15.328l14.167-.697l10.451,16.489-13.47-.464Z" fill="#e3d1fc" stroke="#000" stroke-linecap="round"/><path d="M611.544,154.189c0,31.132-24.944,56.189-55.492,56.189s-55.492-25.057-55.492-56.189s24.944-56.189,55.492-56.189s55.492,25.057,55.492,56.189Z" fill="none" stroke="#e3d1fc" stroke-width="20"/><path d="M621.044,154.189c0,36.284-29.103,65.689-64.992,65.689s-64.992-29.405-64.992-65.689s29.103-65.689,64.992-65.689s64.992,29.405,64.992,65.689Z" fill="none" stroke="#000"/><path d="M602,153.492c0,25.895-20.784,46.878-46.413,46.878-25.628,0-46.413-20.983-46.413-46.878c0-25.894,20.785-46.877,46.413-46.877c25.629,0,46.413,20.983,46.413,46.877Z" fill="none" stroke="#000"/><path d="M574.631,232.222l-11.147-15.328l13.237-1.161l10.916,16.954-13.006-.465Z" fill="#e3d1fc"/><path d="M577.186,216.43l-14.631,1.161" fill="none" stroke="#e3d1fc" stroke-width="0.5"/><path d="M577.186,216.43l-14.631,1.161" fill="none" stroke="#000" stroke-width="0.5" stroke-opacity="0.2"/><path d="M556.052,241.512l-15.096-21.366l20.205-6.271l13.238,18.58-18.347,9.057Z" fill="#fff" stroke="#000" stroke-linecap="round"/><path d="M597.145,155.118c0,31.132-24.944,56.189-55.492,56.189s-55.492-25.057-55.492-56.189s24.944-56.189,55.492-56.189s55.492,25.057,55.492,56.189Z" fill="none" stroke="#fff" stroke-width="20"/><path d="M606.645,155.118c0,36.284-29.103,65.689-64.992,65.689s-64.992-29.405-64.992-65.689s29.103-65.689,64.992-65.689s64.992,29.405,64.992,65.689Z" fill="none" stroke="#000"/><path d="M588.066,154.886c0,26.153-20.891,47.342-46.645,47.342-25.755,0-46.645-21.189-46.645-47.342s20.89-47.342,46.645-47.342c25.754,0,46.645,21.189,46.645,47.342Z" fill="none" stroke="#000"/></g><path d="M60.2632,196.235c9.7994.933,21.6988.7,29.865,0l-1.8666,13.299c-10.7327-1.166-16.3324-1.166-27.0651-1.166c0-4.9,0-7.467-.9333-12.133Z" fill="#fff" stroke="#000"/><path d="M66.1356,212.751c29.865,3.045,120.1594,11.911,147.6914,8.412-8.382-13.304-20.315-20.762-28.698-34.065-83.295-3.967-62.53,11.396-118.9934,6.299-1.8666,7.7-2.5666,10.966,0,19.354Z" fill="#4286f5" stroke="#000"/><path d="M106.927,218.401h-41.0644c-.7732,0-1.4-.627-1.4-1.4s.6268-1.4,1.4-1.4h41.0644c.773,0,1.4.627,1.4,1.4s-.627,1.4-1.4,1.4Z" fill="#4286f5"/><path d="M106.927,218.401h-41.0644c-.7732,0-1.4-.627-1.4-1.4s.6268-1.4,1.4-1.4h41.0644c.773,0,1.4.627,1.4,1.4s-.627,1.4-1.4,1.4Z" fill-opacity="0.2"/><path d="M106.927,218.401h-41.0644c-.7732,0-1.4-.627-1.4-1.4s.6268-1.4,1.4-1.4h41.0644c.773,0,1.4.627,1.4,1.4s-.627,1.4-1.4,1.4Z" fill="none" stroke="#000"/><path d="M108.841,201.605c-3.561-1.587-5.93-2.829-8.385-4.821-.9298-.755-2.3151-.63-3.0364.327-1.8308,2.427-3.3726,4.246-5.9039,6.618-.1457.136-.3128.25-.4931.336-7.8685,3.755-16.0668,5.992-22.9119,9.3-1.7626.851-1.1047,3.169.8528,3.169h36.8965c1.105,0,1.993-.896,2.053-1.999.21-3.921,1.033-6.888,2.053-10.564.266-.957-.217-1.962-1.125-2.366Z" fill="#fabd03"/><path d="M108.841,201.605c-3.561-1.587-5.93-2.829-8.385-4.821-.9298-.755-2.3151-.63-3.0364.327-1.8308,2.427-3.3726,4.246-5.9039,6.618-.1457.136-.3128.25-.4931.336-7.8685,3.755-16.0668,5.992-22.9119,9.3-1.7626.851-1.1047,3.169.8528,3.169h36.8965c1.105,0,1.993-.896,2.053-1.999.21-3.921,1.033-6.888,2.053-10.564.266-.957-.217-1.962-1.125-2.366Z" fill-opacity="0.2"/><path d="M108.841,201.605c-3.561-1.587-5.93-2.829-8.385-4.821-.9298-.755-2.3151-.63-3.0364.327-1.8308,2.427-3.3726,4.246-5.9039,6.618-.1457.136-.3128.25-.4931.336-7.8685,3.755-16.0668,5.992-22.9119,9.3-1.7626.851-1.1047,3.169.8528,3.169h36.8965c1.105,0,1.993-.896,2.053-1.999.21-3.921,1.033-6.888,2.053-10.564.266-.957-.217-1.962-1.125-2.366Z" fill="none" stroke="#000"/><path d="M77.9954,208.835l3.0331,2.333" fill="none" stroke="#000" stroke-width="2" stroke-linecap="round"/><path d="M81.7283,207.435l3.0331,2.333" fill="none" stroke="#000" stroke-width="2" stroke-linecap="round"/><path d="M84.9949,206.035l3.0331,2.333" fill="none" stroke="#000" stroke-width="2" stroke-linecap="round"/><path d="M98.9944,196.002c9.3326-8.866,14.4656-14.233,23.5656-23.565l13.299,13.065c-8.633,8.4-15.166,12.6-26.365,17.733-4.667-2.333-6.533-3.733-10.4996-7.233Z" fill="#fff" stroke="#000"/><path d="M239.687,205.101c-15.4-3.033-30.099-17.499-31.732-27.298-18.215-15.703-29.104-25.582-46.152-38.572-3.588-2.733-8.587-2.661-12.09.18-20.997,17.026-31.209,28.417-50.2521,51.458c3.9661,5.673,10.2661,9.799,16.3321,11.199c16.566-11.199,22.399-15.866,35.465-28.932l17.733,14.466c15.865,23.099,33.364,33.058,46.43,34.065c16.566-4.666,18.666-9.812,24.266-16.566Z" fill="#4286f5" stroke="#000"/><path d="M41.0918,213.625l-8.6089-40.152c-.1621-.756.3193-1.5,1.0753-1.662s1.5002.319,1.6623,1.075l8.6089,40.152c.1621.756-.3193,1.5-1.0753,1.662s-1.5002-.319-1.6623-1.075Z" fill="#4286f5"/><path d="M41.0918,213.625l-8.6089-40.152c-.1621-.756.3193-1.5,1.0753-1.662s1.5002.319,1.6623,1.075l8.6089,40.152c.1621.756-.3193,1.5-1.0753,1.662s-1.5002-.319-1.6623-1.075Z" fill-opacity="0.2"/><path d="M41.0918,213.625l-8.6089-40.152c-.1621-.756.3193-1.5,1.0753-1.662s1.5002.319,1.6623,1.075l8.6089,40.152c.1621.756-.3193,1.5-1.0753,1.662s-1.5002-.319-1.6623-1.075Z" fill="none" stroke="#000"/><path d="M61.1937,205.553c-.0136-3.234-.095-5.161-.5831-7.562-.1829-.899-.9926-1.52-1.9103-1.526-2.6879-.019-4.2006-.143-6.2644-.961-.3145-.124-.5865-.337-.7923-.605-5.2542-6.861-9.1346-14.333-13.7651-20.284-1.2022-1.544-3.3308-.415-2.9205,1.499l7.7353,36.077c.2315,1.08,1.2959,1.768,2.3385,1.403c4.4404-1.553,9.6856-4.99,14.0616-5.776c1.1298-.202,2.1052-1.118,2.1003-2.265Z" fill="#fabd03"/><path d="M61.1937,205.553c-.0136-3.234-.095-5.161-.5831-7.562-.1829-.899-.9926-1.52-1.9103-1.526-2.6879-.019-4.2006-.143-6.2644-.961-.3145-.124-.5865-.337-.7923-.605-5.2542-6.861-9.1346-14.333-13.7651-20.284-1.2022-1.544-3.3308-.415-2.9205,1.499l7.7353,36.077c.2315,1.08,1.2959,1.768,2.3385,1.403c4.4404-1.553,9.6856-4.99,14.0616-5.776c1.1298-.202,2.1052-1.118,2.1003-2.265Z" fill-opacity="0.2"/><path d="M61.1937,205.553c-.0136-3.234-.095-5.161-.5831-7.562-.1829-.899-.9926-1.52-1.9103-1.526-2.6879-.019-4.2006-.143-6.2644-.961-.3145-.124-.5865-.337-.7923-.605-5.2542-6.861-9.1346-14.333-13.7651-20.284-1.2022-1.544-3.3308-.415-2.9205,1.499l7.7353,36.077c.2315,1.08,1.2959,1.768,2.3385,1.403c4.4404-1.553,9.6856-4.99,14.0616-5.776c1.1298-.202,2.1052-1.118,2.1003-2.265Z" fill="none" stroke="#000"/><path d="M44.3801,183.331l-1.6454,3.455" fill="none" stroke="#000" stroke-width="2" stroke-linecap="round"/><path d="M46.5315,186.688l-1.6455,3.454" fill="none" stroke="#000" stroke-width="2" stroke-linecap="round"/><path d="M48.585,189.588l-1.6455,3.455" fill="none" stroke="#000" stroke-width="2" stroke-linecap="round"/><path d="M197.197,100.547c4.619-10.257,6.612-17.9079,9.336-26.128c2.973-6.1394,12.082-4.07,12.245-.1782.131,3.1313-6.973.3148-9.702,3.5899-.435.5215.021,1.2191.696,1.2907c6.218.6592,8.035,3.7521,7.863,6.9743-.062,1.1838-.394,2.3851-.874,3.4896-1.274,2.9318-3.597,5.1813-4.73,4.6111-.073-.0368-.134-.0956-.184-.1611-.422-.5605-.375-1.1004-.156-1.5637.235-.497.263-1.168-.262-1.3308-3.047-.9447-5.688,8.636-10,12.2632-.159.134-.36.207-.567.204-1.971-.031-2.923-1.144-3.577-2.073-.203-.288-.232-.666-.088-.988Z" fill="#fff"/><path d="M208.526,82.1327c2.984-.5704,7.038.4852,9.109,3.963m-9.469.7304c2.052-1.5339,6.236-.3724,8.595,2.7592M206.533,74.419c-2.724,8.2201-4.717,15.871-9.336,26.128-.144.322-.115.7.088.988.654.929,1.606,2.042,3.577,2.073.207.003.408-.07.567-.204c4.312-3.6272,6.953-13.2079,10-12.2632.525.1628.497.8338.262,1.3308-.219.4633-.266,1.0032.156,1.5637.05.0655.111.1243.184.1611c2.723,1.3696,12.306-13.5308-2.259-15.075-.675-.0716-1.131-.7692-.696-1.2907c2.729-3.2751,9.833-.4586,9.702-3.5899-.163-3.8918-9.272-5.9612-12.245.1782Z" fill="none" stroke="#000"/><path d="M265.818,208.679v-2.912l-11.067,1.747v4.369c.873,5.242,7.572,11.358,14.853,9.902c1.248.579,2.593,1.327,3.96,2.111c1.752,1.005,3.091-.583,1.826-2.158-.641-.798-1.234-1.572-1.708-2.283c2.388,1.82,3.495,2.913,6.116,4.66c1.456-.582,2.621-.874,3.204-2.33-2.33-3.204-3.787-4.951-8.155-7.281.951.317,2.124.713,3.397,1.135c2.092.694,3.028-1.424,1.211-2.671-.417-.287-.793-.554-1.113-.794c0-.201.015-.381.04-.546.192-1.247-.613-2.129-1.865-1.974-3.495.431-6.904.211-10.699-.975Z" fill="#fff" stroke="#000"/><path d="M278.342,212.174c-2.622-1.456-5.243-2.039-8.446-2.621" fill="none" stroke="#000"/><path d="M281.837,223.241c-.583-1.456-4.951-4.951-7.573-6.407" fill="none" stroke="#000"/><path d="M269.785,123.672c0-5.131-.752-9.259-2.717-13.487-1.422-3.061-4.684-4.712-8.059-4.712h-13.025c-.772,0-1.543.104-2.304.226-3.081.493-4.266-.226-6.793,2.807-3.5,4.2-8.866,9.1-13.533,14.233-1.868,2.055-3.193,3.552-4.715,4.763-3.307,2.631-8.21.97-9.414-3.081-2.099-7.06-.79-15.337-.756-22.213.007-1.538-.68-2.8399-2.147-3.2988-1.208-.3778-2.806-.7634-4.454-1.0394-4.294-.7187-6.646,3.0492-6.415,7.3962.674,12.699-1.116,27.765,7.428,39.606c1.602,2.221,4.305,3.348,6.999,2.857c5.93-1.083,13.217-3.967,15.807-6.558-4.414,8.729-12.167,22.824-16.704,35.285-.381,1.044-.603,2.153-.333,3.231c1.619,6.474,11.788,18.883,28.321,24.844c4.467,1.611,9.266-.908,10.731-5.424c1.742-5.369,2.718-10.337,3.651-16.405.58,6.652,1.097,10.672,1.304,18.464.126,4.735,3.5,9.098,8.182,8.38c1.08-.166,2.114-.415,3.074-.744c2.611-.898,3.849-3.637,3.952-6.396.781-20.992-.476-26.659-3.09-46.181-.235-1.753.025-3.537.572-5.219c2.568-7.884,4.438-21.068,4.438-27.334Z"/><path d="M245.986,131.839l.814,9.332m0,0l-3.38-2.799m3.38,2.799c2.219,14.233,2.843,21.932,4.553,41.531m0,0c.58,6.652,1.097,10.672,1.304,18.464.126,4.735,3.5,9.098,8.182,8.38c1.08-.166,2.114-.415,3.074-.744c2.611-.898,3.849-3.637,3.952-6.396.781-20.992-.476-26.659-3.09-46.181-.235-1.753.025-3.537.572-5.219c2.568-7.884,4.438-21.068,4.438-27.334c0-5.131-.752-9.259-2.717-13.487-1.422-3.061-4.684-4.712-8.059-4.712-4.414,0-7.616,0-13.025,0-.772,0-1.543.104-2.304.226-3.081.493-4.266-.226-6.793,2.807-3.5,4.2-8.866,9.1-13.533,14.233-1.868,2.055-3.193,3.552-4.715,4.763-3.307,2.631-8.21.97-9.414-3.081-2.099-7.06-.79-15.337-.756-22.213.007-1.538-.68-2.8399-2.147-3.2988-1.208-.3778-2.806-.7634-4.454-1.0394-4.294-.7187-6.646,3.0492-6.415,7.3962.674,12.699-1.116,27.765,7.428,39.606c1.602,2.221,4.305,3.348,6.999,2.857c5.93-1.083,13.217-3.967,15.807-6.558m25.666,41.531c-.933,6.068-1.909,11.036-3.651,16.405-1.465,4.516-6.264,7.035-10.731,5.424-16.533-5.961-26.702-18.37-28.321-24.844-.27-1.078-.048-2.187.333-3.231c4.537-12.461,12.29-26.556,16.704-35.285m13.3-22.865c-8.633,13.533-6.618,9.653-13.3,22.865" fill="none" stroke="#000"/><path d="M267.785,123.672c0-5.131-.752-9.259-2.717-13.487-1.422-3.061-4.684-4.712-8.059-4.712h-13.025c-.772,0-1.543.104-2.304.226-3.081.493-4.266-.226-6.793,2.807-3.5,4.2-8.866,9.1-13.533,14.233-1.868,2.055-3.193,3.552-4.715,4.763-3.307,2.631-8.21.97-9.414-3.081-2.099-7.06-.79-15.337-.756-22.213.007-1.538-.68-2.8399-2.147-3.2988-1.208-.3778-2.806-.7634-4.454-1.0394-4.294-.7187-6.646,3.0492-6.415,7.3962.674,12.699-1.116,27.765,7.428,39.606c1.602,2.221,4.305,3.348,6.999,2.857c5.93-1.083,13.217-3.967,15.807-6.558-4.414,8.729-12.167,22.824-16.704,35.285-.381,1.044-.603,2.153-.333,3.231c1.619,6.474,11.788,18.883,28.321,24.844c4.467,1.611,9.266-.908,10.731-5.424c1.742-5.369,2.718-10.337,3.651-16.405.58,6.652,1.097,10.672,1.304,18.464.126,4.735,3.5,9.098,8.182,8.38c1.08-.166,2.114-.415,3.074-.744c2.611-.898,3.849-3.637,3.952-6.396.781-20.992-.476-26.659-3.09-46.181-.235-1.753.025-3.537.572-5.219c2.568-7.884,4.438-21.068,4.438-27.334Z"/><path d="M243.986,131.839l.814,9.332m0,0l-3.38-2.799m3.38,2.799c2.219,14.233,2.843,21.932,4.553,41.531m0,0c.58,6.652,1.097,10.672,1.304,18.464.126,4.735,3.5,9.098,8.182,8.38c1.08-.166,2.114-.415,3.074-.744c2.611-.898,3.849-3.637,3.952-6.396.781-20.992-.476-26.659-3.09-46.181-.235-1.753.025-3.537.572-5.219c2.568-7.884,4.438-21.068,4.438-27.334c0-5.131-.752-9.259-2.717-13.487-1.422-3.061-4.684-4.712-8.059-4.712-4.414,0-7.616,0-13.025,0-.772,0-1.543.104-2.304.226-3.081.493-4.266-.226-6.793,2.807-3.5,4.2-8.866,9.1-13.533,14.233-1.868,2.055-3.193,3.552-4.715,4.763-3.307,2.631-8.21.97-9.414-3.081-2.099-7.06-.79-15.337-.756-22.213.007-1.538-.68-2.8399-2.147-3.2988-1.208-.3778-2.806-.7634-4.454-1.0394-4.294-.7187-6.646,3.0492-6.415,7.3962.674,12.699-1.116,27.765,7.428,39.606c1.602,2.221,4.305,3.348,6.999,2.857c5.93-1.083,13.217-3.967,15.807-6.558m25.666,41.531c-.933,6.068-1.909,11.036-3.651,16.405-1.465,4.516-6.264,7.035-10.731,5.424-16.533-5.961-26.702-18.37-28.321-24.844-.27-1.078-.048-2.187.333-3.231c4.537-12.461,12.29-26.556,16.704-35.285m13.3-22.865c-8.633,13.533-6.618,9.653-13.3,22.865" fill="none" stroke="#000"/><path d="M267.129,123.197c0-5.132-.752-9.26-2.716-13.488-1.422-3.061-4.685-4.711-8.06-4.711h-13.025c-.771,0-1.543.103-2.304.225-3.081.494-4.265-.225-6.793,2.808-3.5,4.2-8.866,9.099-13.533,14.232-1.868,2.056-3.193,3.552-4.715,4.763-3.307,2.632-8.21.97-9.414-3.081-2.099-7.059-.789-15.337-.756-22.213.008-1.537-.68-2.8395-2.147-3.2984-1.207-.3778-2.805-.7634-4.454-1.0394-4.293-.7187-6.646,3.0488-6.415,7.3958.674,12.699-1.116,27.765,7.428,39.606c1.602,2.221,4.305,3.349,6.999,2.857c5.931-1.083,13.217-3.967,15.808-6.557-4.414,8.728-12.168,22.823-16.705,35.284-.38,1.044-.6,2.151-.355,3.235c1.464,6.468,10.689,18.855,26.949,24.822c4.458,1.636,9.234-.891,11.037-5.283c2.159-5.263,3.805-10.106,4.739-16.527.58,6.652,1.097,10.672,1.304,18.464.126,4.735,3.5,9.097,8.182,8.379c1.08-.165,2.114-.414,3.074-.744c2.611-.897,3.85-3.637,3.952-6.396.781-20.991-.476-26.659-3.09-46.181-.234-1.753.025-3.537.573-5.219c2.567-7.883,4.437-21.067,4.437-27.333Z" fill="#109d58" fill-opacity="0.75"/><path d="M243.331,131.363l.813,9.333m0,0l-3.38-2.8m3.38,2.8c2.22,14.232,2.844,21.932,4.553,41.531m0,0c.58,6.652,1.097,10.672,1.304,18.464.126,4.735,3.5,9.097,8.182,8.379c1.08-.165,2.114-.414,3.074-.744c2.611-.897,3.85-3.637,3.952-6.396.781-20.991-.476-26.659-3.09-46.181-.234-1.753.025-3.537.573-5.219c2.567-7.883,4.437-21.067,4.437-27.333c0-5.132-.752-9.26-2.716-13.488-1.422-3.061-4.685-4.711-8.06-4.711-4.414,0-7.616,0-13.025,0-.771,0-1.543.103-2.304.225-3.081.494-4.265-.225-6.793,2.808-3.5,4.2-8.866,9.099-13.533,14.232-1.868,2.056-3.193,3.552-4.715,4.763-3.307,2.632-8.21.97-9.414-3.081-2.099-7.059-.789-15.337-.756-22.213.008-1.537-.68-2.8395-2.147-3.2984-1.207-.3778-2.805-.7634-4.454-1.0394-4.293-.7187-6.646,3.0488-6.415,7.3958.674,12.699-1.116,27.765,7.428,39.606c1.602,2.221,4.305,3.349,6.999,2.857c5.931-1.083,13.217-3.967,15.808-6.557m25.665,41.531c-.934,6.421-2.58,11.264-4.739,16.527-1.803,4.392-6.579,6.919-11.037,5.283-16.26-5.967-25.485-18.354-26.949-24.822-.245-1.084-.025-2.191.355-3.235c4.537-12.461,12.291-26.556,16.705-35.284m13.299-22.866c-8.633,13.533-6.618,9.654-13.299,22.866" fill="none" stroke="#000"/><path d="M245.76,113.352c-9.492-1.131-6.798-6.007-1.539-8.468c6.802-3.441,9.881-5.2377,17.58-7.8039v7.1849c3.978,4.106-7.185,8.469-16.041,9.087Z" fill="#fff"/><path d="M266.42,92.076c-.642,4.2342-2.31,4.7475-4.619,1.5397v3.3361L244.586,108.04v-9.566c8.772.3907,14.392-4.3451,16.06-7.8094l.257-5.3891c-3.722.7699-6.673,0-8.341-2.8228-1.289-2.1813,1.54-11.5479,14.243-4.743L266.42,92.076Z" stroke="#000"/><path d="M241.53,97.6622c5.775,2.7428,19.172-1.9078,19.172-8.5799c6.801-1.9246,1.54-9.6232-2.438-6.2872-.641.5381-.641,1.5398-.385,2.4379-5.517.5133-4.804-6.6293-2.751-9.1955-4.491,0-3.592.1283-6.743.5988l-10.779-6.2874c0,9.3667-9.547,20.9146,3.924,27.3133Z" fill="#fff"/><path d="M260.702,89.0823c0,6.6721-13.397,11.3227-19.172,8.5799-13.471-6.3987-3.924-17.9466-3.924-27.3133l10.779,6.2874c3.151-.4705,2.252-.5988,6.743-.5988-2.053,2.5662-2.766,9.7088,2.751,9.1955-.256-.8981-.256-1.8998.385-2.4379c3.978-3.336,9.239,4.3626,2.438,6.2872Zm0,0c-1.026-.3849-1.668-.6415-2.694-1.4114m2.566,0c-.257-.8981-1.925-2.5662-1.411-2.3096.513.2567,2.951-.3849,3.336-1.4114" fill="none" stroke="#000"/><path d="M239.731,71.5466c-5.261-4.3626-1.798-.7699-7.059-5.1324-9.896-.2129-6.819,8.1342.374,6.6721c1.48-.3009,1.809-.3849,6.685-1.5397Z" stroke="#000"/><path d="M241.093,64.2134c9.341-.8295,14.706,4.3927,17.586,8.8638.842,1.3073-.266,2.9379-1.821,2.9548-2.733.0297-5.577.308-7.719.5633-.444.053-.893-.0414-1.276-.2716-4.347-2.6098-7.613-4.5794-11.806-6.7642-1.723-.8977-1.373-3.5684.507-4.0622c1.238-.3254,2.525-.7052,4.122-1.2026.131-.0407.27-.0691.407-.0813Z" fill="#fff" stroke="#000"/><path d="M265.906,75.396h6.416c.898,1.4114.898,1.9246,0,3.0794h-6.416v-3.0794Z"/><path d="M264.379,77.2717c-2.064-.5483-2.139-.5755-3.264-.874-.559-.1482-1.028-.5371-1.298-1.0483-4.816-9.1202-11.145-11.009-16.242-11.161-1.684-.0502-2.732-1.8912-1.523-3.0651c11.145-10.8248,28.611,1.2287,24.596,14.9493-.28.9588-1.303,1.4555-2.269,1.1991Z" fill="#fff"/><path d="M264.379,77.2717c-2.064-.5483-2.139-.5755-3.264-.874-.559-.1482-1.028-.5371-1.298-1.0483-4.816-9.1202-11.145-11.009-16.242-11.161-1.684-.0502-2.732-1.8912-1.523-3.0651c11.145-10.8248,28.611,1.2287,24.596,14.9493-.28.9588-1.303,1.4555-2.269,1.1991Z" fill="#109d58" fill-opacity="0.75" stroke="#000"/><path d="M259.792,58.8461c-.141-.2377-.447-.3165-.685-.176s-.317.4471-.176.6848l.861-.5088Zm-.13,17.0173c-.096.2588.036.5466.295.6428.259.0961.547-.0358.643-.2946l-.938-.3482Zm-.731-16.5085c2.004,3.3915,2.59,6.4077,2.481,9.1154-.109,2.7203-.918,5.1547-1.75,7.3931l.938.3482c.836-2.2525,1.696-4.8127,1.811-7.7012.117-2.9011-.517-6.1079-2.619-9.6643l-.861.5088Z"/><ellipse rx="0.641551" ry="1.15479" transform="matrix(.942397 0.334496-.334496 0.942397 240.208999 76.698604)"/><ellipse rx="0.641551" ry="1.15479" transform="matrix(.942397 0.334496-.334496 0.942397 247.651036 79.521611)"/><path d="M237.82,73.6427c1.654,1.7533,3.579,1.625,5.389,3.5927" fill="none" stroke="#000"/><path d="M245.715,76.8395c1.654,1.7532,3.579,1.6249,5.389,3.5927" fill="none" stroke="#000"/><path d="M242.81,78.8603l-1.903,4.2396c-.524,1.168-.093,2.5437,1.005,3.2024v0" fill="none" stroke="#000" stroke-linecap="round"/><path d="M240.77,87.7268c1.784,1.7832,3.196,1.27,4.62.231" fill="none" stroke="#000" stroke-linecap="round"/><line x1="262.044" y1="94.3723" x2="262.044" y2="104.407" fill="none" stroke="#000" stroke-linecap="round"/><line x1="244.851" y1="100.531" x2="244.851" y2="110.566" fill="none" stroke="#000" stroke-linecap="round"/><g id="e6Gtwozkm8S169_to" transform="translate(172.537003,53.777849)"><g transform="translate(-172.537002,-43.777849)"><ellipse rx="24.1532" ry="23.6887" transform="translate(172.537 38.0879)" fill="#ea4235"/><path d="M183.917,73.1565c-4.413-3.7159-6.271-9.5219-6.271-12.3088h-10.218c0,5.5738,6.038,12.3088,16.489,12.3088Z" fill="#ea4235"/><path d="M168.719,44.9961c0-1.901.215-3.3984.644-4.4922.43-1.1068,1.127-2.0638,2.09-2.8711.964-.8073,1.693-1.543,2.188-2.207.507-.6771.761-1.4193.761-2.2266c0-1.9661-.846-2.9492-2.539-2.9492-.781,0-1.412.2865-1.894.8594s-.736,1.3476-.762,2.3242h-6.602c.027-2.6042.847-4.6289,2.461-6.0742c1.615-1.4584,3.881-2.1875,6.797-2.1875c2.904,0,5.15.6705,6.739,2.0117c1.601,1.3411,2.402,3.2487,2.402,5.7226c0,1.0808-.215,2.0639-.645,2.9493-.429.8854-1.119,1.7903-2.07,2.7148l-2.246,2.0899c-.638.6119-1.081,1.2434-1.328,1.8945-.248.638-.384,1.4518-.41,2.4414h-5.586Zm-.801,5.9375c0-.9635.345-1.7513,1.035-2.3633.703-.625,1.576-.9375,2.617-.9375c1.042,0,1.908.3125,2.598.9375.703.612,1.055,1.3998,1.055,2.3633s-.352,1.7578-1.055,2.3828c-.69.612-1.556.918-2.598.918-1.041,0-1.914-.306-2.617-.918-.69-.625-1.035-1.4193-1.035-2.3828Z" fill="#fff"/></g></g><path d="M592.984,99.8643h27.869c12.31,0,13.006,19.0437,0,19.0437h-27.869c-10.915,0-11.612-19.0437,0-19.0437Z" fill="#4286f5"/><path d="M592.984,99.8643h27.869c12.31,0,13.006,19.0437,0,19.0437h-27.869c-10.915,0-11.612-19.0437,0-19.0437Z" fill="#fff" fill-opacity="0.2"/><path d="M589.644,125.411c3.483-2.555,4.18-4.181,4.877-6.735h7.896c-1.858,4.412-5.806,6.735-12.773,6.735Z" fill="#4286f5"/><path d="M589.644,125.411c3.483-2.555,4.18-4.181,4.877-6.735h7.896c-1.858,4.412-5.806,6.735-12.773,6.735Z" fill="#fff" fill-opacity="0.2"/><g id="e6Gtwozkm8S177_ts" transform="translate(607.293976,109.153999) scale(1,1)"><circle r="2.78691" transform="translate(0.000024,0.000001)" fill="#fff"/></g><g id="e6Gtwozkm8S178_ts" transform="translate(617.51297,109.153999) scale(1.5,1.5)"><circle r="2.78691" transform="translate(0.00003,0.000001)" fill="#fff"/></g><g id="e6Gtwozkm8S179_ts" transform="translate(597.075958,109.153999) scale(1,1)"><circle r="2.78691" transform="translate(0.000042,0.000001)" fill="#fff"/></g><path d="M380,165h28.5h28.5v17.271l-28.5.11-28.5.119v-17.5Z" fill="#fff"/><path d="M397,88.3392h11l10.797-.0001L419,107.339h-11.229-10.771v-18.9998Z" fill="#fff"/><path d="M555,38.3391l-5,8" fill="none" stroke="#000"/><path d="M543,52.8875l2.514,4.4516l29.486-6" fill="none" stroke="#000"/></svg>